<?xml version="1.0" encoding="UTF-8"?>
<svg version="1.1" xmlns="http://www.w3.org/2000/svg" width="256" height="256">
<path d="M0 0 C84.48 0 168.96 0 256 0 C256 84.48 256 168.96 256 256 C171.52 256 87.04 256 0 256 C0 171.52 0 87.04 0 0 Z " fill="#FF385C" transform="translate(0,0)"/>
<path d="M0 0 C11.07652991 8.32632089 16.74527887 25.04348126 22.66088867 37.1328125 C24.73785804 41.36374804 26.85197323 45.57597339 28.96484375 49.7890625 C30.4197923 52.6989596 31.87464108 55.60890224 33.328125 58.51953125 C34.42552978 60.7117217 35.52714335 62.90180995 36.6328125 65.08984375 C40.88793165 73.52337136 45.04262065 82.00576751 49.16381836 90.50540161 C49.7700096 91.75484199 50.37722913 93.00378412 50.9855957 94.25216675 C67.93956386 129.06415001 67.93956386 129.06415001 63.38623047 145.93261719 C60.61870326 153.33588984 56.24863605 159.95013351 49.96484375 164.7890625 C49.36027344 165.25699219 48.75570312 165.72492188 48.1328125 166.20703125 C40.237985 171.68999699 30.48147827 173.99058881 20.96484375 172.7890625 C5.53697109 169.73619724 -4.83778819 162.67327377 -15.41796875 151.484375 C-17.73472876 148.80171654 -17.73472876 148.80171654 -20.03515625 147.7890625 C-20.27621094 148.36140625 -20.51726562 148.93375 -20.765625 149.5234375 C-26.21379202 159.24632019 -39.48274338 166.99469603 -49.66015625 170.7890625 C-54.59376373 172.03869334 -59.59613509 172.09412014 -64.66015625 172.1640625 C-65.46018066 172.17824219 -66.26020508 172.19242188 -67.08447266 172.20703125 C-77.03225129 172.12486913 -83.722022 168.35141871 -91.03515625 161.7890625 C-96.03515625 156.67278343 -96.03515625 156.67278343 -96.03515625 153.7890625 C-96.69515625 153.7890625 -97.35515625 153.7890625 -98.03515625 153.7890625 C-103.30699914 144.63394249 -103.92938861 132.93736058 -101.55761719 122.73486328 C-100.36821052 118.90113321 -98.73635342 115.28732868 -96.96777344 111.68994141 C-95.98677412 109.69044908 -95.05856231 107.6719293 -94.13671875 105.64453125 C-89.21449147 94.89809786 -83.8679192 84.35529402 -78.52734375 73.8125 C-78.09679687 72.95914063 -77.66625 72.10578125 -77.22265625 71.2265625 C-76.86558594 70.52402344 -76.50851563 69.82148437 -76.140625 69.09765625 C-75.29859389 67.33920965 -74.51296543 65.55363544 -73.75390625 63.7578125 C-69.58156432 53.931178 -64.68747285 44.39439232 -60.03515625 34.7890625 C-59.63538574 33.95938965 -59.23561523 33.1297168 -58.82373047 32.27490234 C-44.02665959 1.6243076 -44.02665959 1.6243076 -31.22265625 -4.1484375 C-19.63242236 -8.0118488 -10.52030969 -6.25968523 0 0 Z " fill="#FF3A5E" transform="translate(147.03515625,36.2109375)"/>
<path d="M0 0 C11.07652991 8.32632089 16.74527887 25.04348126 22.66088867 37.1328125 C24.73785804 41.36374804 26.85197323 45.57597339 28.96484375 49.7890625 C30.4197923 52.6989596 31.87464108 55.60890224 33.328125 58.51953125 C34.42552978 60.7117217 35.52714335 62.90180995 36.6328125 65.08984375 C40.88793165 73.52337136 45.04262065 82.00576751 49.16381836 90.50540161 C49.7700096 91.75484199 50.37722913 93.00378412 50.9855957 94.25216675 C67.93956386 129.06415001 67.93956386 129.06415001 63.38623047 145.93261719 C60.61870326 153.33588984 56.24863605 159.95013351 49.96484375 164.7890625 C49.36027344 165.25699219 48.75570312 165.72492188 48.1328125 166.20703125 C40.237985 171.68999699 30.48147827 173.99058881 20.96484375 172.7890625 C5.53697109 169.73619724 -4.83778819 162.67327377 -15.41796875 151.484375 C-17.73472876 148.80171654 -17.73472876 148.80171654 -20.03515625 147.7890625 C-20.27621094 148.36140625 -20.51726562 148.93375 -20.765625 149.5234375 C-26.21379202 159.24632019 -39.48274338 166.99469603 -49.66015625 170.7890625 C-54.59376373 172.03869334 -59.59613509 172.09412014 -64.66015625 172.1640625 C-65.46018066 172.17824219 -66.26020508 172.19242188 -67.08447266 172.20703125 C-77.03225129 172.12486913 -83.722022 168.35141871 -91.03515625 161.7890625 C-96.03515625 156.67278343 -96.03515625 156.67278343 -96.03515625 153.7890625 C-96.69515625 153.7890625 -97.35515625 153.7890625 -98.03515625 153.7890625 C-103.30699914 144.63394249 -103.92938861 132.93736058 -101.55761719 122.73486328 C-100.36821052 118.90113321 -98.73635342 115.28732868 -96.96777344 111.68994141 C-95.98677412 109.69044908 -95.05856231 107.6719293 -94.13671875 105.64453125 C-89.21449147 94.89809786 -83.8679192 84.35529402 -78.52734375 73.8125 C-78.09679687 72.95914063 -77.66625 72.10578125 -77.22265625 71.2265625 C-76.86558594 70.52402344 -76.50851563 69.82148437 -76.140625 69.09765625 C-75.29859389 67.33920965 -74.51296543 65.55363544 -73.75390625 63.7578125 C-69.58156432 53.931178 -64.68747285 44.39439232 -60.03515625 34.7890625 C-59.63538574 33.95938965 -59.23561523 33.1297168 -58.82373047 32.27490234 C-44.02665959 1.6243076 -44.02665959 1.6243076 -31.22265625 -4.1484375 C-19.63242236 -8.0118488 -10.52030969 -6.25968523 0 0 Z M-34.58203125 13.62890625 C-38.70252593 19.39981413 -41.66387251 25.87126115 -44.76953125 32.22265625 C-47.23361264 37.23756699 -49.8556676 42.1652586 -52.47265625 47.1015625 C-56.45246478 54.63839343 -60.22106668 62.2451202 -63.82739258 69.96704102 C-66.19398763 75.03254339 -68.63834941 80.04910428 -71.16015625 85.0390625 C-74.94873542 92.54896795 -78.52625827 100.14498403 -82.03515625 107.7890625 C-82.51082031 108.82417969 -82.98648438 109.85929687 -83.4765625 110.92578125 C-84.31765134 112.76613385 -85.14921052 114.61088799 -85.96875 116.4609375 C-87.03515625 118.7890625 -87.03515625 118.7890625 -88.84765625 122.0390625 C-91.32084313 129.84912632 -91.45477197 138.74511295 -88.03515625 146.2890625 C-84.66542937 152.0492794 -79.3912164 157.4398451 -73.03515625 159.7890625 C-58.11156708 161.12318794 -48.745053 158.41079171 -36.8203125 149.1171875 C-33.33490942 146.20372294 -30.09768181 143.14274366 -27.03515625 139.7890625 C-28.61166356 135.1740355 -31.10468956 131.51601292 -33.84765625 127.5390625 C-43.74007774 112.8878805 -50.65479979 98.96475288 -48.03515625 80.7890625 C-46.81596726 77.06401275 -45.18977698 74.04058106 -43.03515625 70.7890625 C-42.73351562 70.08523437 -42.431875 69.38140625 -42.12109375 68.65625 C-40.74483551 66.28987792 -39.53653172 65.82363875 -37.03515625 64.7890625 C-36.37515625 64.44746094 -35.71515625 64.10585937 -35.03515625 63.75390625 C-34.37515625 63.41488281 -33.71515625 63.07585937 -33.03515625 62.7265625 C-32.37515625 62.38496094 -31.71515625 62.04335937 -31.03515625 61.69140625 C-24.41979413 58.70674092 -16.68182775 58.73020969 -9.79296875 60.73046875 C-0.86771843 64.28053714 4.68822858 68.08309591 8.96484375 76.7890625 C12.61334379 86.25685472 11.7102171 95.55477993 7.96484375 104.7890625 C7.68640625 105.65015625 7.40796875 106.51125 7.12109375 107.3984375 C3.61497776 118.09813631 -2.79641417 126.66685524 -9.53125 135.57421875 C-11.22240664 137.61863539 -11.22240664 137.61863539 -11.03515625 139.7890625 C-2.33359528 149.1721665 8.88254551 159.58403542 22.15625 161.02734375 C30.18590033 161.27868371 37.4954058 159.57969737 43.83984375 154.4765625 C50.57247729 145.96176125 53.92743977 139.98312266 52.96484375 128.7890625 C51.73247815 122.41437137 48.52471102 116.74425311 45.5859375 111.0168457 C43.84724947 107.61787566 42.26844132 104.22854396 40.90234375 100.6640625 C39.15764452 96.13511409 37.05032875 91.87311096 34.84765625 87.55078125 C32.40313645 82.71429748 30.10294514 77.80846277 27.77734375 72.9140625 C22.32016787 61.46387123 16.7156943 50.09454583 10.96484375 38.7890625 C10.52221191 37.91636719 10.07958008 37.04367188 9.62353516 36.14453125 C1.66113386 17.87447251 1.66113386 17.87447251 -13.05078125 6.12890625 C-22.60133899 4.49327924 -28.27832133 6.13131188 -34.58203125 13.62890625 Z " fill="#FFF8F9" transform="translate(147.03515625,36.2109375)"/>
<path d="M0 0 C5.02722371 4.6681363 7.8951836 8.87927688 8.375 15.875 C7.69685233 30.77541137 -1.71376218 43.96937956 -10.375 55.4375 C-17.07159801 53.20530066 -21.07466426 43.3631585 -24.375 37.4375 C-28.50371893 29.17822389 -32.40967445 19.77574468 -30.375 10.4375 C-28.26132274 5.35951926 -25.10331114 1.32061655 -20.375 -1.5625 C-13.87007466 -3.57592927 -6.12252971 -2.83450449 0 0 Z " fill="#FF3B5E" transform="translate(139.375,109.5625)"/>
</svg>
